<svg xmlns="http://www.w3.org/2000/svg" viewBox="0 0 61.88 38.75"><defs><style>.cls-1{fill:#fff;}</style></defs><title>자산 4</title><g id="레이어_2" data-name="레이어 2"><g id="레이어_1-2" data-name="레이어 1"><polygon class="cls-1" points="24.88 0 20.97 3.91 20.97 11.94 24.92 15.89 24.88 0"/><polygon class="cls-1" points="34 0 34 37.75 40.03 31.72 40.03 21.69 53.94 21.69 55.94 21.69 55.94 37.75 61.88 31.81 61.88 15.89 40.44 15.89 40.06 15.89 40.06 4.94 34 0"/><polygon class="cls-1" points="22.95 38.75 32.19 38.75 27.44 34 22.95 38.75"/><path class="cls-1" d="M20.81,12.81H4.19L0,16.83V33.48l5,5.27H19.94l4.94-5.2V17.09ZM19.25,32.59H5.63V19H19.25Z"/></g></g></svg>