<svg id="레이어_1" data-name="레이어 1" xmlns="http://www.w3.org/2000/svg" xmlns:xlink="http://www.w3.org/1999/xlink" viewBox="0 0 6423.34 1895"><defs><style>.cls-1{font-size:1296px;font-family:BMDoHyeon, BM DoHyeon;}</style></defs><title>무제-1</title><image width="1080" height="1080" transform="translate(1126.68) rotate(45)" xlink:href="5709077d31ef3372a0bd877ef2f1122453f310b2342733932e9f6223ecc9a021.png"/><path d="M656,322" transform="translate(0 185)"/><ellipse cx="649.5" cy="1141" rx="649.5" ry="634"/><path d="M647,1710s236-69,395-228c0,0,148.85-112.83,217.92-308.91" transform="translate(0 185)"/><path d="M649.92,1710s-236-69-395-228c0,0-148.84-112.83-217.92-308.91" transform="translate(0 185)"/><rect x="484" y="1744" width="334" height="61"/><rect x="531" y="1655" width="234" height="188"/><polyline points="587 1832 595 1865 627 1882 647 1895 699 1869 718 1827 641.33 1804.67"/><path d="M429.49,308.8c65.57-27.41,139.2-42.8,217-42.8s151.44,15.39,217,42.8a95,95,0,1,0-68.39-176.08,150.51,150.51,0,0,0-297.24,0A95,95,0,1,0,429.49,308.8Z" transform="translate(0 185)"/><text class="cls-1" transform="translate(1446.74 1416.4)">당근마켓</text></svg>