<svg xmlns="http://www.w3.org/2000/svg" viewBox="0 0 1321.97 438"><defs><style>.cls-1{isolation:isolate;}</style></defs><title>자산 3</title><g id="레이어_2" data-name="레이어 2"><g id="레이어_1-2" data-name="레이어 1"><g class="cls-1"><path d="M662.45,63c0,79.32-47.22,131.48-133.94,153.39l-18.83-38.89c60.8-14.81,92.28-42.9,99.07-75.61H527.27V63ZM557.83,219.46H752V334.27H557.83ZM606.9,295.7h96V258h-96ZM752,47.56V208.05H702V47.56Z"/><path d="M1056.25,180.27v39.19H793.61V180.27H899.78V161.44H824.47V59.6H1025.7V98.48H874.16v24.08h152.77v38.88H949.77v18.83Zm-31.17,104c0,34.25-38.58,54-101.54,54-62.65,0-101.23-19.76-101.23-54,0-34.57,38.58-54.32,101.23-54.32C986.5,230,1025.08,249.71,1025.08,284.28Zm-50.62,0c0-12-15.74-16.67-50.92-16.67s-50.61,4.63-50.61,16.67,15.43,16.35,50.61,16.35S974.46,296.31,974.46,284.28Z"/><path d="M1235.56,108.05H1078.47V69.47h56.17V45.4h50V69.47h50.93Zm-76.23,119.13c-38.89,0-69.14-24.07-69.14-56.17s30.25-56.17,69.14-56.17c39.19,0,69.44,24.07,69.44,56.17S1198.52,227.18,1159.33,227.18Zm-37,16H1322v94.13h-50V282.12H1122.29Zm37-53.39c13.27,0,23.14-6.18,23.14-18.83s-9.87-18.83-23.14-18.83c-13,0-22.84,6.18-22.84,18.83S1146.36,189.84,1159.33,189.84ZM1322,47.87V232.43h-50V204.65h-31.79V165.46H1272V148.17h-30.86V109H1272V47.56Z"/></g><path d="M29.42,0,0,75.17V382.43H104.59V438h58.84L219,382.43h85L418.4,268V0ZM379.16,248.42l-65.37,65.37H209.2l-55.57,55.57V313.79H65.37V39.22H379.16Zm-65.37-134V228.69H274.57V114.41Zm-104.59,0V228.69H170V114.41Z"/><rect x="53.46" y="35.32" width="338" height="235"/><rect x="37.46" y="254.32" width="325" height="64"/><rect x="122.46" y="286.32" width="90" height="80"/><rect x="127.46" y="344.32" width="46" height="36"/></g></g></svg>