<svg xmlns="http://www.w3.org/2000/svg" viewBox="0 0 1673.53 438"><defs><style>.cls-1{fill:#fd2d97;}</style></defs><title>자산 2</title><g id="레이어_2" data-name="레이어 2"><g id="레이어_1-2" data-name="레이어 1"><path class="cls-1" d="M645,144.4c0,47.1,17.5,98.34,70.65,120.3L688,304.8c-33.41-13.69-55.37-39.78-68.42-72.24-12.73,36-34.69,64.92-69.38,80.19L521.2,272c53.79-23.23,71.61-78,71.61-127.62V139H534.25V97h168v42H645ZM774.52,69.62V367.81H723V69.62Z"/><path class="cls-1" d="M1088,290.16v41.37H817.48V290.16ZM994.74,272c9.86-54.42,10.18-95.16,10.18-137.16H844.21V94.44h212.27v38.19c0,44.23,0,84-10.51,143.84Z"/><path class="cls-1" d="M1371.21,69.3V367.81h-48.69V221.73h-15.91V355.39h-47.74V273l-22.27,29.6c-24.51-13.37-41.06-34.69-51.56-61.1-9.23,31.18-25.46,56.32-51.23,72.24l-30.55-38.83c45.5-27.37,55.37-81.15,55.37-136.84h-44.55V97h134.29V138h-39.78c0,48.69,9.87,96.11,50.28,121.88V73.44h47.74V180.68h15.91V69.3Z"/><path class="cls-1" d="M1673.53,290.16v41.37H1403V290.16ZM1580.29,272c9.87-54.42,10.18-95.16,10.18-137.16H1429.76V94.44H1642v38.19c0,44.23,0,84-10.5,143.84Z"/><rect class="cls-1" width="438" height="438" rx="128" ry="128"/></g></g></svg>