<svg xmlns="http://www.w3.org/2000/svg" viewBox="0 0 6423.34 1901"><defs><style>.cls-1{fill:#fdfdfd;}.cls-2{fill:#796e65;}.cls-3{fill:#fbeae1;}.cls-4{fill:#d6e7d1;}.cls-5{fill:#f5bc9c;}.cls-6{fill:#b3d2a0;}.cls-7{fill:#e9ccc3;}.cls-8{fill:none;}.cls-10,.cls-9{fill:#ff7e36;}.cls-10{font-size:1296px;font-family:BMDoHyeon, BM DoHyeon;}</style></defs><title>자산 12</title><g id="레이어_2" data-name="레이어 2"><g id="레이어_1-2" data-name="레이어 1"><path class="cls-1" d="M1156.3,1526.22q-377.77,0-755.56.13c-5.62,0-7.38-.72-7.38-7q.3-755.92,0-1511.84c0-5.82,1.28-6.81,6.9-6.81q755.93.24,1511.85,0c5.44,0,7,.71,7,6.71q-.27,756.27,0,1512.55c0,5.4-1.36,6.43-6.53,6.43Q1534.43,1526.13,1156.3,1526.22Z"/><path class="cls-2" d="M1325.75,839.08c15.11-.53,29.21-1,43.35-3.91,12.82-2.65,26.09-5.08,39.37-1.74,12.08,3.05,21.33,11.77,20.36,26.8-.21,3.27.66,4.54,2.92,5.95a87,87,0,0,1,17,13.29c20.55,21.33,16.6,60.85-9.76,76.63-7.61,4.56-15.49,8-23.89,9.09s-17.24.35-25.75-.71c-9.62-1.2-19.25-.55-28.55.59-16.25,2-32.55,2.45-48.8,3.78-18.55,1.51-37.17.95-55.73,2.43-13.5,1.08-27.16,0-40.71.58-12.59.53-25.21-1-37.78.77-2.18.29-4.51-.76-6.79-1-9-.9-16.36,1.47-23.8,7.47-13.35,10.78-28,19.91-42.08,29.82-10.07,7.1-19.87,14.58-30.07,21.49-19.47,13.18-39.17,26-58.73,39.1-10.09,6.74-20,13.68-30.15,20.39-7,4.62-14.06,9.09-21.18,13.49-5.32,3.28-9.08,8-12.59,13-5.54,7.82-12.76,13.07-21.41,17.36-13.81,6.85-34.31-.71-43.61-10.25-8-8.24-15.51-16.7-20.63-27.14-4.68-9.56-8.38-19.26-6.45-30.12.46-2.54-.6-2.68-2.47-2.92-13.46-1.78-25.75-6.61-36.15-15.34-12.31-10.34-23.1-22.34-26.67-38.4-3.2-14.38,1.55-30.88,25.34-39.41,10.82-3.88,16.8-11.63,23.5-19.45,2.28-2.66,4.5-5.4,7-7.85s5.32-3.28,8.09-.56,2.63,6.13.42,8.89C853,959,846.84,967,839.9,974.17c-4.39,4.57-11.08,5.82-16.91,8.1-14.91,5.84-21.11,19.49-13.12,33,11.18,18.83,26.2,32.88,49.64,35.75,9.08,1.11,12.61-5.53,17.43-9.56,20.18-16.88,39.61-34.67,59.28-52.16,2.77-2.46,5.9-5.12,9.1-1.79,3.06,3.18,2.67,7.48-.63,10.55q-13,12.15-26.46,23.86c-9.26,8.09-18.73,15.94-28.05,24-2.81,2.42-5.27,5.14-8.48,7.22-9.15,5.94-12,14.94-9,25,5.58,19,16.15,34.44,34.21,43.73,9.65,5,18.35,1.78,26.89-3.56,6.62-4.13,9.84-11,14.61-16.65,6.28-7.35,15-11.06,22.55-16.5,10.17-7.33,21.11-13.58,31.6-20.48,15.76-10.35,31.5-20.74,47.09-31.34,14.07-9.57,27.93-19.44,41.86-29.21q22.52-15.79,45-31.67c5-3.5,9.74-7.22,14.59-10.85,1.7-1.27,3.34-3,5.62-2.51,9.45,2,19,.26,28.5.88,10.12.66,20.32.2,30.47-.07,14-.38,28-1.77,42-1.35,11.44.35,22.74-.86,34.11-1.06,15-.26,30.06-1.25,45.08-2.41,18.39-1.42,36.73-4.31,55.29-3.09,8.1.54,16,2.13,24.38.23,18.6-4.23,31.66-16.7,32.82-36.29s-11.2-33.29-27.06-40.76c-2.19-1-2.88.32-4.19,1.12a75.5,75.5,0,0,1-16.94,8.09c-3.57,1.1-7.87,1.29-9.41-3-1.49-4.14,1-7,5-8.62s8.44-2.9,12.16-5.17c4.18-2.55,8.4-6.1,7.64-11.63s-5.06-8.6-10.46-9.9c-10.64-2.57-21.13-.85-31.64,1-15.57,2.75-31.11,4.64-47.1,3.88-7.81-.38-15.79-.2-23.7-.5q-34-1.32-67.82-5c-3.22-.36-5.8-1-7-4.49-1.55-4.71.44-7.71,5.51-7.62,15.47.27,30.77,2.82,46.24,3.52,6.29.29,12.15-1,17.66-2.39,23.35-6.11,44-17.12,61-35s28.72-38.48,33.81-62.23c2.33-10.9,2.59-22.51,1.8-34.14-.92-13.34-3.9-26.15-7.4-38.71-3.27-11.76-9-23-14.5-34-5.72-11.43-11.86-22.67-20.1-32.66-2.74-3.32-5.14-8.33,0-11.69,4.71-3.06,7.63.32,9.83,4.42.76,1.42,2.25,2.44,3.09,3.83,2.06,3.39,3.68,2.7,6.91.78,15.89-9.44,30.44-20.55,42.94-34.13,9.8-10.66,17.85-22.41,22.15-36.7,6.33-21.06-2.28-36.61-17.92-48.7-9.1-7-21.07-7.64-32.39-5.79-22.7,3.7-41.57,15.41-59.25,29.46a194.43,194.43,0,0,0-25.63,24.64c-2.62,3-2.44,4,.18,5.66,2.88,1.8,4.5,4.66,6.73,7,3.19,3.36,4.57,6.9.9,10.39s-7,1.12-9.62-1.89a71.11,71.11,0,0,0-26.4-19,89.12,89.12,0,0,0-22.91-6.15c-4.08-.57-7.82-1.75-7.68-6.42.16-5.16,4.14-6.35,8.57-5.76,6.45.84,13.18.65,19.07,4,3.52,2,5.09,1.16,6.41-2.68,8.81-25.75,13.68-52.13,9-79.16-3.78-21.89-13.25-40.59-36.25-48.84-15.68-5.63-37.19,1.2-47.66,15.28-11.93,16-18.52,34-21,53.83-1.38,11.22-.94,22.33-1.13,33.51-.07,4.2,1,5.92,5.53,5.61,5.45-.38,13-1.55,12.66,6.63-.28,7.53-7.74,6-12.88,6-17.59.11-34.73,2.93-51.9,6.73-28.56,6.32-54.72,17.71-78.06,35.09-14.24,10.6-25.94,23.86-36.16,38.57A117.71,117.71,0,0,0,1001.76,624c-4.44,19.78-2.74,39.53,3.2,58.73,5.89,19,14.12,37.11,27.86,51.92,5.33,5.75,12,10.3,18,15.35,1.78,1.48,3.8,2.58,5.15,4.66,2.16,3.34,3,6.65-.42,9.32-3,2.31-6,.9-8.64-1.36-4.74-4.08-10-7.7-14.16-12.29-6.2-6.8-12.61-4.63-19.33-1.77-28.29,12-56.07,25.27-81.33,42.83-23.59,16.4-45.38,34.91-61.15,59.7-8,12.57-14.51,25.49-16.54,40.21-1.81,13.16.44,25.7,10.25,35.58,6.43,6.48,13.74,11.74,23,14,7.45,1.83,13.86-.36,16.57-7.39,5.57-14.43,16.1-22.65,31.29-22.35,9.83.2,15.43-5.78,21.83-10.65,12-9.17,23.51-19.12,35.18-28.78,3.16-2.61,6.6-3.21,9.35-.06s1.87,6.65-1.3,9.27c-12.76,10.5-25.34,21.22-38.45,31.27-7,5.36-7.49,5.3-2.06,11.86,9.93,12,19.33,24.33,26.56,38.25a49.47,49.47,0,0,1,5.09,15.88c1.64,11.26-10,18.34-22.2,14-21-7.45-38.52-20.25-55.27-34.49-4.12-3.51-7.82-6.33-15.19-4.86-19.43,3.87-33.73-6.84-46-20.74-7-7.88-9.65-17.4-11-27.41-.37-2.72-1.72-3.88-3.83-5-9.5-5.06-16.55-12.58-22.09-21.74-4.43-7.3-6.22-15-3.94-23.26,1-3.66-.31-4.4-3.71-4.52s-5.59,2.1-8.13,3.67c-8.47,5.23-16.65,10.87-26.91,12.49-7.92,1.26-15.56-3.37-16.68-11.37-.45-3.22-1.3-3.78-4.72-3.47-5.36.49-10.62,2.13-16.34.42-6.25-1.88-10.21-4.72-11.43-11.44-1.08-5.9,1.07-9.9,5.62-13.16,1.91-1.36,3.75-2.82,5.55-4.31.75-.63,1.75-.86,1.28-2.59-3.92-14.61-.13-20.86,14-22.22,7.89-.76,15.9-.33,23.35,3.22,2.46,1.18,4.09,1.54,6.21-1.66,5.91-8.95,13.46-9.3,21.95-3,9.92,7.37,17.39,16.8,24.47,26.63,2.73,3.8,4.6,4.53,9.48,2.28,8.68-4,18.43-6.26,27.47-.63,5.79,3.6,8.84,2.89,13.61-2.45a227.59,227.59,0,0,1,38-33.64C925,782,934.65,775.08,945,769.17c21.16-12.09,42.4-24.07,65.63-31.86,4.66-1.56,5.83-4.07,2.91-8-10.51-14.17-16.61-30.41-21.35-47.11a130.66,130.66,0,0,1-2.74-58.82c4.65-26.79,18.58-48.62,36.17-68.12,18.41-20.41,40.93-35.31,66.56-45.92a284,284,0,0,1,58.91-16.87,94.69,94.69,0,0,1,13.86-1.85c4.13-.12,4-1.64,3.73-5.12-1.38-19.92-.51-39.78,5.4-59,6.12-19.9,15.28-38.36,33-50.39,12.41-8.4,26-11.17,41.67-7.53,31.37,7.3,43.46,29.45,49.68,57.91,4.68,21.41,1.65,42.36-2.19,63.25-1.49,8.08-3.62,16.32-7.58,23.83-.71,1.34-2.1,3.71-.27,5.07,2.43,1.8,3-1.16,4.09-2.36,12.89-14.53,27.08-27.59,43.44-38.12,19-12.21,39-21.65,62.26-21.5,33.07.22,59.57,32.5,53,64.91-3.89,19.23-14.59,34.85-27.88,48.93a187.14,187.14,0,0,1-29.06,25.09c-5.16,3.59-10.46,7-15.89,10.2-2.59,1.52-2.94,2.45-1.49,5.35,5.6,11.19,12,22,16.49,33.76a219.17,219.17,0,0,1,13.44,52.46c3.5,29.3-2.52,56.66-17,81.9a142.28,142.28,0,0,1-52,52.58c-2,1.17-4.28,1.8-6.38,2.8C1329.67,835.53,1327.63,836.19,1325.75,839.08Z"/><path class="cls-3" d="M1321.86,691.85c.07.54.15,1.08.22,1.62-2.52,6.45-2.38,13.15-2.71,20-1,21.32-8,40.65-23.83,55.52-23,21.55-50.79,27.64-81.54,24.4-22.67-2.4-43.07-11-63.22-20.71a230.49,230.49,0,0,1-46.78-29.8c-23.14-19.17-38.53-43.06-38-73.77.44-27.64,12.1-50.89,35.22-67.3,6.14-4.35,12.44-6.84,19.85-1,4.11,3.23,10,4.29,15.37,4.63,15.8,1,31.44.32,46.33-6.2,3.9-1.71,8.76-5.24,12.37-2,3.27,2.91-.63,7.38-1.58,11.12-3.29,13-4.55,25.7,5.41,36.58,12.33,13.49,27.1,12.89,41.68,2.52,5.21-3.7,9.13-8.68,12.81-13.93,4.8-6.85,6.94-6.53,10.3,1.12,7.74,17.61,17.74,33.5,32.32,46.45A42.34,42.34,0,0,0,1321.86,691.85Z"/><path class="cls-2" d="M1321.86,691.85c-9.78,3.44-17.72-1.55-24.41-7-17.3-14.14-29.21-32.36-36.69-53.44a11.88,11.88,0,0,0-1.3-2c-6,5.5-8.92,13.58-16,18.12-3.11,2-6.11,4.07-9.36,5.93-11.91,6.83-23,4.26-32.73-3.31-10.46-8.18-13.87-19.81-11.75-33.12,1.07-6.68,3.32-13,5.68-19.81-9.54,1.52-17.35,6.18-26.12,8.14a92.7,92.7,0,0,1-45-.82c-2-.54-4.68-1-5.69-2.5-4.76-6.86-9.75-2.34-14-.15-9.09,4.68-16,12.18-21.57,20.57-12.61,19.17-18.39,40.17-13.7,63.11a82.9,82.9,0,0,0,14.51,33c17.06,23,40.08,38.41,65.33,51.11,17.09,8.6,34.41,16.59,53.25,20.2,21,4,41.93,4,62.51-3.86,17.39-6.6,31.78-17,41.12-32.8,7.47-12.63,12-26.78,11.52-42-.12-3.93.21-7.87.25-11.8,0-3,2-4.57,4.3-5.91,4.69-.35,6.58,2,7.1,6.52,3.19,27.94-4.42,52.9-23.24,73.34-16,17.36-36.64,27-60.48,30-38.07,4.9-71.87-6.83-104.66-24.34-10.5-5.61-20.85-11.31-30.56-18.19-18.67-13.24-34.78-29-45.17-49.55-8.46-16.79-12.45-35.19-9.2-53.62,4.7-26.65,17.15-49.49,40.14-65.32,3.55-2.45,7.63-4.41,12-3.59,3.19.59,3-1.82,3.5-3.14,6.11-18.13,20.37-27.42,36.75-34.7a109.18,109.18,0,0,1,42.1-9.13c14.52-.36,27.31,4.71,38.74,13.47,3.35,2.47,3.18,5.54,1.24,8.68s-5,3.12-8.16,2.61a9,9,0,0,1-3.28-1.25c-28.32-17.26-54.49-8-80.13,6.61-3.68,2.1-6.48,5.45-9,8.85-5.09,6.79-3.43,10.8,4.82,12,17.75,2.63,34.56-.75,50.81-7.84,9-3.94,17.4-9.17,26.13-13.7,3.56-1.85,6.63-2.39,9.65.48,3.18,3,3.49,6.58,1,10.18-3.7,5.43-7.9,10.47-11.35,16.12-4.85,7.92-6.69,16.42-6.92,25.5-.21,7.74,2.42,14.33,9.52,17.47,7.5,3.31,14.88,1.06,20.93-4.27a59.49,59.49,0,0,0,17.86-27.41,58,58,0,0,1,2.72-8c1.83-3.84,4.73-5.92,9.07-4.84s5.89,4.28,6,8.46c.91,29.06,16,50.54,36.83,69a13.68,13.68,0,0,0,2.3,1.63c6.12,3.55,9.53,1.9,11.06-5,3.63-16.28-2.2-30.09-11.19-43a73.78,73.78,0,0,0-27.2-24c-3.24-1.64-5.9-3.93-7.16-7.44-1.78-5,.61-8,6.46-8.18,17.77,6.33,30.45,18.89,40.84,34,3.9,5.67,7.77,11.45,9.73,18.3,3.34,11.67,5.72,23,1.94,35.35C1331.48,682.78,1328.25,688.21,1321.86,691.85Z"/><path class="cls-4" d="M1281.17,588c-2.67.8-5.42,1.65-5.57,5.07a7.67,7.67,0,0,0,4.93,7.74c12.72,5.4,22,14.92,30,25.66,10.4,14,15.47,29.59,11.41,47.23-1.41,6.16-8,8.27-13.75,4A94.77,94.77,0,0,1,1278,639.72c-2.66-5.93-6-11.46-8-17.81-1.67-5.4-3.84-10.23-1.78-16.14,1.21-3.45.1-7.21-4.43-8.15-4.3-.9-6.64,1.43-7.65,5.35-3.26,12.66-8.71,24-18.54,33.06-8.59,7.89-18.93,10.66-25.94,6.54-8.11-4.77-11.64-15.42-9.34-26.74a64.6,64.6,0,0,1,16.11-31.31,22.75,22.75,0,0,0,3.54-5.2c1.39-2.75,0-4.91-2-6.84s-4.2-2.27-6.35-.68c-7,5.11-15.16,7.89-22.48,12.27-12.79,7.65-27.11,10.12-41.44,11.8-6.5.75-13.35-1.36-20-2.3-6.08-.86-6.38-5-4.4-9.36,3-6.62,8.52-11.29,14.34-15.13a91,91,0,0,1,44.74-14.7c11.92-.75,24.39.16,34.44,8.73,2.87,2.44,6.42,3.82,9.59,1.18,2.83-2.37,2.59-5.84.7-9l7.15.35c-2,8-1.65,9.11,7,10.13,10.38,1.23,18.9,5.27,24.42,14.24,3.06,5,6.91,6.4,12.25,5A3.25,3.25,0,0,1,1281.17,588Z"/><path class="cls-2" d="M1117.68,798c3.19.56,5.79,3.45,9,5.14a194.61,194.61,0,0,0,32.48,14c4.4,1.37,5.84,3.88,4.45,7.76s-4.1,5-8.42,3.78c-14.41-4.17-27.39-11.39-40.62-18.15-3.91-2-3.23-5.38-2.66-8.54C1112.38,799.49,1114.39,798.17,1117.68,798Z"/><path class="cls-2" d="M1279.93,585c-4.79,3.67-8.85,4.67-12.17-2.07-5.57-11.34-16.14-14.64-27.6-16.06-2.81-.35-5.53-.18-7-3.44-1.71-3.83,1.56-5.39,3.12-7.76,15.61-2,28.23,3.38,38.29,15.4C1278,575.14,1280.53,579.38,1279.93,585Z"/><path class="cls-5" d="M936.06,924c7.44-2.8,10.18,2,14.17,7.3,6.62,8.71,13.18,17.44,19.53,26.36,3.83,5.4,6.37,11.43,9.57,17.13,2.58,4.58.51,5.72-3.92,5.6-9.21-.24-16.35-5.58-23.49-10.15A397.38,397.38,0,0,1,918,945.55c-3.51-2.81-4.46-5-2-8.67C920.77,929.65,925,921.44,936.06,924Z"/><path class="cls-6" d="M768.73,854.88c2.16-6.71,6.23-10.2,10.84-12.08,5.07-2.08,4.63-5.1,3.36-8.85-1.5-4.44-4.61-3.65-8-2.27A141.12,141.12,0,0,1,746.31,840c-3.34.6-6.88,1.18-10.54-1a23.74,23.74,0,0,1,13.53-8.44,27.37,27.37,0,0,0,2.78-.38c4.33-1.54,10.69-2.18,10.45-7.7s-6-7-11.12-7.54c-1.8-.18-4.33-.08-4.11-2.55.18-1.88,2.54-1.58,4.16-1.68,10-.61,19.56.69,28.08,6.65a40.37,40.37,0,0,0,8.14,4.11c3,1.22,6,1.12,8.22-1.82,2.09-2.75,1.37-5.07-.61-7.6-1.35-1.73-3.15-3.4-3.21-6.45,10.25,3.57,14.49,13.13,21.32,19.8,2.63,2.57,4.41,6,6.59,9,.7,1,1.41,2,.71,3.2s-2,.64-3.11.43c-9.84-1.83-18.21,1.32-26.3,6.89C784.8,849.51,777.75,853.39,768.73,854.88Z"/><path class="cls-5" d="M841.57,887.79c-6.72-5.7-13.16-11.26-16.49-19.67-4.62-11.66,2.26-21.13,11.14-28.47,7.07-5.85,15.51-6.91,24.23-2.88,2.68,1.23,3.94,2.66,1.84,5.24-10.43,12.8-15.77,27.85-19.52,43.62A10.3,10.3,0,0,1,841.57,887.79Z"/><path class="cls-2" d="M1181.31,692c-3.47-6.39-4.48-11.84.1-16.95s10.13-4.74,16.15-3.16c4.86,1.27,9.65,2.6,12.66,6.83,7.35,10.35,4.52,16.89-9.12,21.3,3.34,6.54,7.94,9.38,15.39,6.54,3.3-1.26,6.39-.63,7.67,3.67,1.16,3.92-.38,6.33-3.52,8.16-5.92,3.45-21.29,1.15-25.06-5.13-4.79-8-11.46-10-19.7-9.65-9.46.36-15.52-6-21.79-11.4-2.94-2.53-4.27-7.07-.17-10.43,3.49-2.86,5.79-1,8.8,1.83C1167.55,688.12,1172.8,692.79,1181.31,692Z"/><path class="cls-2" d="M1169.79,631.68c-1.73,12.47-5.49,24.46-15.67,33.52-2.43,2.17-5,3.2-8.19,1.57a6.39,6.39,0,0,1-3.76-6.19c.15-13.38,3.1-25.75,12.92-35.66,2.57-2.6,4.91-6.48,9-4.94C1168.75,621.76,1169.49,626.57,1169.79,631.68Z"/><path class="cls-2" d="M1238.38,695.91c1.45-12.16,5.92-23.4,15.63-32,2.4-2.14,5.14-4.48,8.79-2.81s4.5,5.11,4.21,8.86c-1,12.46-4.89,23.65-13.94,32.63-2.75,2.73-5.2,6.46-10,4.63C1237.78,705.21,1238.81,700.53,1238.38,695.91Z"/><path class="cls-7" d="M1271.72,734.58c-6.4-.12-11.74-6.17-11.75-13.29,0-6.79,4.71-10.78,12.65-10.69,6.82.08,12.8,6.4,12.73,13.46C1285.29,729.65,1278.72,734.72,1271.72,734.58Z"/><path class="cls-7" d="M1115.46,669.67c-6.33,0-12.18-6.19-12.11-12.85.07-6.82,4.9-11.09,12.6-11.13,6.92,0,12.66,5.89,12.76,13.17C1128.78,664.52,1122.49,669.65,1115.46,669.67Z"/><rect class="cls-8" x="615.01" y="222.01" width="1080" height="1080" transform="translate(-215.93 949.7) rotate(-41.21)"/><ellipse class="cls-9" cx="649.5" cy="1147" rx="649.5" ry="634"/><path class="cls-9" d="M647,1901s236-69,395-228c0,0,148.85-112.83,217.92-308.91"/><path class="cls-9" d="M649.92,1901s-236-69-395-228c0,0-148.84-112.83-217.92-308.91"/><rect class="cls-9" x="484" y="1750" width="334" height="61"/><rect class="cls-9" x="531" y="1661" width="234" height="188"/><polyline class="cls-9" points="587 1838 595 1871 627 1888 647 1901 699 1875 718 1833 641.33 1810.67"/><path class="cls-9" d="M429.49,499.8c65.57-27.41,139.2-42.8,217-42.8s151.44,15.39,217,42.8a95,95,0,1,0-68.39-176.08,150.51,150.51,0,0,0-297.24,0A95,95,0,1,0,429.49,499.8Z"/><text class="cls-10" transform="translate(1446.74 1422.4)">당근마켓</text></g></g></svg>