<svg id="레이어_1" data-name="레이어 1" xmlns="http://www.w3.org/2000/svg" viewBox="0 0 6423.34 1901"><defs><style>.cls-1{fill:#fdfdfd;}.cls-2{fill:#796e65;}.cls-3{fill:#fbeae1;}.cls-4{fill:#d6e7d1;}.cls-5{fill:#f5bc9c;}.cls-6{fill:#b3d2a0;}.cls-7{fill:#e9ccc3;}.cls-8{fill:none;}.cls-9{font-size:1296px;font-family:BMDoHyeon, BM DoHyeon;}</style></defs><title>무제-1</title><path class="cls-1" d="M1204.65,1590.57q-378.14,0-756.27.12c-5.1,0-6.61-.84-6.6-6.37q.23-756.27,0-1512.54c0-5.88,1.37-6.78,6.94-6.78q755.91.24,1511.84,0c5.5,0,7,.8,7,6.74q-.27,755.91,0,1511.84c0,6.17-1.53,7.13-7.3,7.12Q1582.43,1590.47,1204.65,1590.57Z" transform="translate(-48 -65)"/><path class="cls-2" d="M785.49,887.24c-6.25-10-2-21.86,13.83-23.28,7.9-.71,15.9-.34,23.33,3.31,2.5,1.24,4.06,1.24,6.12-1.89,5.86-8.91,13.34-9.09,22-2.73,10.17,7.47,17.6,17.24,24.88,27.2,2.47,3.38,4.21,3.76,8.48,1.84,9.45-4.25,19.59-6.55,29.36-.18,4.64,3,7.43,2.32,11.4-2.21a224.86,224.86,0,0,1,38.34-34.25c9.49-6.81,18.93-13.64,29.06-19.48,21.53-12.39,43.19-24.56,66.85-32.55,4.9-1.65,5.5-4.28,2.67-8.1-11.2-15.16-17.65-32.59-22.26-50.48a125.89,125.89,0,0,1-1.89-54.79c3.8-20.65,12.75-38.82,25.31-55.28a179.8,179.8,0,0,1,63.84-52.91,246.54,246.54,0,0,1,54.33-19.6c10.64-2.46,21.52-4,32.34-5.5,3.33-.47,3.87-1,3.61-4.58-1.5-20.15-.61-40.24,5.37-59.67,6.06-19.67,15.18-37.87,32.59-49.91,12.57-8.7,26.42-11.87,42.29-7.88,12.08,3,22.2,8,30.51,16.91,10.13,10.84,15.51,24,18.66,38.4,4.65,21.26,2.72,42.27-1.5,63.26-1.79,8.87-3.92,17.64-7.75,25.94-.76,1.64-2.53,4.26-.32,5.63,2.69,1.66,3.2-1.78,4.45-3.12,9.35-10.08,18.95-19.9,30-28.16,22.44-16.81,46.18-30.76,75.37-30.71,33,.06,59.44,32.61,52.81,65-3.92,19.22-14.64,34.8-28,48.86A183.82,183.82,0,0,1,1443.09,661c-4.2,2.92-8.3,6.22-12.92,8.28-7.45,3.32-5.72,7.73-2.51,12.76a165.92,165.92,0,0,1,14.14,28.78,209.81,209.81,0,0,1,13.44,52.46c3.47,29.32-2.61,56.66-17,81.89a142.58,142.58,0,0,1-52.06,52.51c-2,1.17-4.3,1.76-6.38,2.8-1.79.9-3.46,2-6.52,3.9a155.05,155.05,0,0,0,37.55-2.13c11.44-2,22.84-4.55,34.47-4.34,7.11.13,14.45.71,20.73,5,8.73,6,12.49,14.23,11,24.6-.43,2.88,1.53,3,2.82,4,5.46,4.3,11.47,7.62,16.48,12.78,20,20.6,18.82,56.15-3.89,74.1-10.51,8.32-22.57,13.34-37.23,12.3-20.86-1.49-41.84-1.34-62.72,2-10.1,1.63-20.53,1.32-30.82,1.81-18.8.89-37.6,1.87-56.42,2.54-11.92.42-23.86.25-35.79.49-14.47.29-29-.71-43.39,1-2.29.27-4-1.08-6.11-1.19-8.83-.44-16.4.93-24,7.12-13.45,11-28.36,20.23-42.6,30.28-9.88,7-19.54,14.23-29.5,21.08-19.56,13.48-39.2,26.83-59.26,39.57-14.76,9.38-28.53,20.44-43.78,28.88-12.64,7-19.42,19.18-29.71,28.1-17.29,15-39.88,11.73-55.42-3.31-8.82-8.54-16.38-17.86-21.6-29-4.09-8.75-7.14-17.77-5.54-27.58.43-2.66-.07-3.15-2.5-3.46-25.86-3.33-43.86-18.41-57.09-39.62-7.11-11.4-9.33-24.17-2.19-36.59,4.89-8.5,12.64-14.86,22-17.07,11.23-2.65,16.45-11.38,23-18.91,2.3-2.64,4.29-5.52,7-7.89s5.59-3.78,8.6-.77c2.76,2.75,2.43,6.15.22,8.91-6.11,7.65-12.19,15.36-18.9,22.48-4.56,4.85-11.44,6.15-17.47,8.52-14.77,5.81-21,19.67-12.91,33,11.15,18.53,26,32.39,49,35.6,9.45,1.31,13.12-5.52,18.1-9.69,20.18-16.88,39.6-34.67,59.27-52.16,2.81-2.51,6.09-5,9.11-1.57,2.79,3.15,2.6,7.5-.86,10.59-12.83,11.46-25.79,22.78-38.71,34.15-10.12,8.92-20.28,17.79-30.34,26.77-5.9,5.26-4.39,12.63-2.85,18.39,5.1,19.09,15.82,34.55,33.74,44,10.12,5.35,19.24,2.23,28-3.88,5.38-3.75,8.27-9.32,12.07-14.28,6.27-8.16,15.77-12.31,23.92-18.06,10.25-7.22,21.18-13.48,31.67-20.37q23.94-15.72,47.66-31.77c13.87-9.44,27.54-19.16,41.28-28.8q22.8-16,45.55-32.09c4.94-3.5,9.74-7.22,14.58-10.86,1.7-1.28,3.33-2.68,5.66-2.45,8.6.83,17.31,0,25.8.58,11.82.77,23.49-.32,35.22-.3,13.53,0,27.08-.44,40.61-.76,10.92-.25,21.85-.41,32.75-1,15-.74,30.06-1.36,45.08-2.5,18.63-1.42,37.2-4.36,56-3.11,8.11.53,16,1.87,24.38.22,26-5.13,38.75-29.37,30-52.78-4.47-12-13.74-18.84-24.56-24.35-2.2-1.12-2.88.54-4.18,1.29-5.43,3.15-10.93,6.29-17,8-3.51,1-7.79,1.29-9.3-3.18-1.29-3.84.85-6.79,4.58-8.25,3.46-1.36,6.8-3,10.32-4.24,5.49-2,10.08-6.16,10-12.26s-5.09-9-10.62-10.44c-10.39-2.68-20.78-1.23-30.95.91a191.48,191.48,0,0,1-42.35,4.29c-20.25-.3-40.49-1.19-60.71-2.35-12.34-.71-24.61-2.63-36.94-3.56-5-.38-6.65-3.37-6.58-7.23.08-4.55,3.4-5.22,7.53-4.83,15.59,1.47,31.19,3,46.83,3.77,5.18.27,10.63-1,15.7-2.43,23.22-6.61,43.9-17.38,60.88-35.24s28.69-38.53,33.74-62.27c2.32-10.88,2.51-22.52,1.77-34.14-.86-13.38-4-26.13-7.49-38.69-3.28-12-9.14-23.4-14.79-34.6s-11.64-22.25-19.81-32c-2.75-3.29-5-8.43.23-11.66,4.73-2.91,7.58.59,9.82,4.62,1,1.81,2.82,3.15,4,4.88,1.59,2.25,2.59,1.62,4.81.31,16.54-9.73,31.76-21.21,44.6-35.4,9.82-10.86,17.55-23,21.77-37.65,8.88-30.9-20.31-60.21-53.44-52.39-26.17,6.17-46.86,20.58-66.61,37.5-5.89,5-10.35,11.32-16,16.47-2.42,2.2-1.73,3.61.4,4.87,3.55,2.1,5.55,5.6,8.17,8.53s3,6.5-.2,9.33-6.2,1.61-8.62-1.15a74,74,0,0,0-28.11-20.2,92.77,92.77,0,0,0-21.57-5.78c-4.27-.62-8.43-1.49-8.2-6.61.27-5.78,5-6.13,9.4-5.57,6.46.81,13.17.86,19,4.27,3.32,1.93,4.28.51,5.35-2.5,9.23-26.14,14-53,9.09-80.48-3.83-21.33-12.87-40.35-35.65-47.5-12.45-3.9-25.41-3.69-36.82,4.54-14.21,10.27-22,24.91-27.34,41.07-6,18.42-6.79,37.46-6.06,56.67.16,4.37,1.43,5.71,5.72,5.44,5.23-.34,12.49-1.52,12.51,6.11,0,8.22-7.74,6.49-13,6.56-17.34.22-34.25,2.94-51.21,6.59a211.8,211.8,0,0,0-65.54,26.13,151.6,151.6,0,0,0-37.5,32.17c-13.31,15.85-24.28,33.07-29.22,53.4a112.3,112.3,0,0,0-2.83,32.58,128.37,128.37,0,0,0,9.38,41.41c7.23,18,15.32,35.48,31.75,47.53,4.45,3.27,8.6,7.08,12.87,10.67,3.26,2.73,6.35,6.58,2.67,10.81s-7,1.49-10.5-1.58c-4.17-3.67-9.13-6.46-12.77-10.77-5.43-6.42-12-5.8-18.59-2.75-21.76,10-43.67,19.66-64.29,32.08-18.81,11.33-36.94,23.64-52.56,38.88-20.86,20.33-39.12,43-43.48,73.17-1.83,12.68.79,25.26,10.56,34.89,6.52,6.43,13.8,11.67,23.05,13.93,7.42,1.81,13.66-.45,16.45-7.58,5.64-14.37,16.21-22.55,31.41-22.21,9.56.21,15.06-5.54,21.27-10.26,12.06-9.15,23.54-19.08,35.16-28.8,3.37-2.82,6.89-3.77,9.87-.29,2.69,3.15,1.64,6.65-1.5,9.27-8.77,7.29-17.36,14.84-26.48,21.65-4,3-7.16,6.77-11.25,9.48-8.2,5.42-8.19,5.32-2.13,12.54,10.18,12.12,19.53,24.8,26.81,38.92a44.42,44.42,0,0,1,4.33,14.7c1.47,11.27-10.12,18.15-22.38,13.78-21-7.47-38.5-20.3-55.24-34.53-4.18-3.56-8-6.18-15.23-4.71-19.24,3.89-33.47-6.87-45.63-20.34-7.1-7.85-10.1-17.69-11.25-28-.32-2.88-1.94-3.78-3.95-4.89-9.17-5.08-16.13-12.34-21.66-21.23-4.67-7.51-6.42-15.29-4.23-23.9.34-1.33,1.1-3.25-.44-3.77-2.63-.88-5.55-1.17-8,.8-6.07,4.82-13,8.35-19.86,11.68-6.48,3.11-13.35,5.53-20.48,1.36-2.47-1.44-5.68-3.16-5.78-5.8-.47-11.86-8.81-6.49-13.85-6.08-9.94.81-17.46-3.4-19.43-12.41-1-4.72,0-8.66,4.15-11.67C779.88,892.21,782.62,889.64,785.49,887.24Z" transform="translate(-48 -65)"/><path class="cls-3" d="M1370.24,757.61c.07.54.14,1.08.22,1.62-2.52,6.45-2.39,13.14-2.71,20-1,21.31-8,40.65-23.83,55.52-23,21.55-50.8,27.64-81.55,24.4-22.66-2.4-43.06-11-63.22-20.71a230.65,230.65,0,0,1-46.78-29.81c-23.13-19.17-38.53-43.05-38-73.76.44-27.64,12.09-50.9,35.22-67.3,6.13-4.35,12.43-6.84,19.84-1,4.12,3.23,10,4.29,15.37,4.63,15.8,1,31.44.32,46.34-6.2,3.89-1.71,8.75-5.25,12.36-2,3.27,2.92-.63,7.39-1.58,11.13-3.28,13-4.54,25.7,5.41,36.58,12.34,13.49,27.1,12.89,41.69,2.52,5.21-3.7,9.12-8.68,12.8-13.93,4.81-6.85,7-6.53,10.31,1.12,7.74,17.6,17.74,33.5,32.31,46.45A42.36,42.36,0,0,0,1370.24,757.61Z" transform="translate(-48 -65)"/><path class="cls-2" d="M1370.24,757.61c-9.78,3.44-17.72-1.55-24.41-7-17.31-14.14-29.21-32.36-36.7-53.44a11.32,11.32,0,0,0-1.3-2c-6,5.51-8.91,13.59-15.94,18.12-3.11,2-6.12,4.08-9.37,5.94-11.91,6.83-23,4.26-32.72-3.31-10.47-8.18-13.87-19.81-11.75-33.12,1.06-6.68,3.31-13,5.68-19.81-9.55,1.51-17.35,6.18-26.13,8.14a92.54,92.54,0,0,1-45-.83c-2-.53-4.68-1-5.69-2.49-4.76-6.86-9.75-2.34-14-.15-9.1,4.68-16.06,12.18-21.57,20.57-12.61,19.17-18.39,40.17-13.7,63.1a82.76,82.76,0,0,0,14.5,33c17.07,23,40.08,38.41,65.33,51.12,17.09,8.6,34.42,16.59,53.25,20.19,21,4,41.94,4,62.52-3.85,17.39-6.61,31.77-17,41.11-32.8,7.47-12.64,12-26.78,11.53-42-.13-3.92.21-7.86.24-11.8,0-3,2-4.56,4.31-5.9,4.68-.35,6.57,2,7.09,6.51,3.19,28-4.41,52.9-23.23,73.35-16,17.36-36.65,27-60.49,30-38.06,4.9-71.87-6.84-104.66-24.35-10.5-5.6-20.85-11.3-30.55-18.18-18.67-13.24-34.79-29-45.18-49.56-8.46-16.78-12.45-35.18-9.2-53.62,4.7-26.64,17.15-49.48,40.14-65.32,3.55-2.44,7.64-4.4,12-3.58,3.19.59,3.06-1.82,3.51-3.15,6.1-18.12,20.36-27.41,36.75-34.69a109.13,109.13,0,0,1,42.09-9.13c14.53-.37,27.31,4.71,38.75,13.47,3.35,2.47,3.17,5.54,1.23,8.68s-5,3.12-8.15,2.6a9.25,9.25,0,0,1-3.29-1.24c-28.31-17.26-54.48-8-80.13,6.61-3.67,2.1-6.48,5.45-9,8.85-5.09,6.79-3.43,10.8,4.83,12,17.75,2.63,34.55-.75,50.8-7.84,9-3.94,17.41-9.17,26.14-13.71,3.55-1.84,6.63-2.38,9.64.49,3.19,3,3.49,6.58,1,10.18-3.7,5.43-7.9,10.47-11.35,16.11-4.84,7.93-6.68,16.43-6.92,25.51-.2,7.74,2.42,14.33,9.53,17.47,7.5,3.31,14.87,1.06,20.92-4.27a59.56,59.56,0,0,0,17.87-27.41,58.06,58.06,0,0,1,2.71-8c1.83-3.84,4.74-5.91,9.07-4.83s5.89,4.28,6,8.46c.91,29.06,16,50.54,36.82,69a14.36,14.36,0,0,0,2.31,1.63c6.11,3.55,9.52,1.9,11.06-5,3.62-16.27-2.21-30.08-11.2-43a73.72,73.72,0,0,0-27.19-24c-3.24-1.64-5.91-3.93-7.16-7.44-1.79-5,.61-8,6.45-8.18,17.78,6.33,30.45,18.88,40.84,34,3.91,5.68,7.77,11.46,9.73,18.31,3.35,11.66,5.73,23.05,2,35.35C1379.85,748.54,1376.62,754,1370.24,757.61Z" transform="translate(-48 -65)"/><path class="cls-4" d="M1329.54,653.72c-2.66.8-5.42,1.64-5.56,5.07a7.65,7.65,0,0,0,4.93,7.74c12.72,5.39,22,14.92,30,25.66,10.4,14,15.48,29.59,11.42,47.23-1.42,6.16-8,8.27-13.75,4a94.79,94.79,0,0,1-30.17-37.91c-2.66-5.93-6-11.46-8-17.81-1.67-5.41-3.84-10.23-1.77-16.14,1.2-3.46.09-7.21-4.43-8.15-4.3-.9-6.65,1.42-7.66,5.35-3.26,12.66-8.7,24-18.53,33.06-8.59,7.89-18.94,10.66-26,6.54-8.11-4.77-11.63-15.42-9.34-26.75a64.71,64.71,0,0,1,16.12-31.3,23.41,23.41,0,0,0,3.54-5.2c1.38-2.75,0-4.91-2-6.84s-4.19-2.27-6.35-.68c-7,5.1-15.16,7.89-22.48,12.27-12.79,7.65-27.11,10.12-41.44,11.79-6.49.76-13.34-1.35-20-2.29-6.08-.87-6.39-5-4.4-9.36,3-6.62,8.51-11.3,14.33-15.13a91.12,91.12,0,0,1,44.75-14.71c11.91-.75,24.39.17,34.44,8.73,2.86,2.45,6.41,3.83,9.58,1.19,2.84-2.37,2.59-5.84.71-9l7.14.35c-2,8-1.65,9.11,7,10.13,10.39,1.23,18.91,5.27,24.42,14.23,3.07,5,6.92,6.41,12.26,5A3.28,3.28,0,0,1,1329.54,653.72Z" transform="translate(-48 -65)"/><path class="cls-2" d="M1160,870.75c-.23-2.5.27-4.78,2.6-6.08,2.14-1.2,4.08-1.13,6.43.37a157.24,157.24,0,0,0,37.71,17.53c4.14,1.3,7,3.3,5.3,7.94-1.5,4.16-4.31,5.08-8.94,3.75-14.22-4.07-27-11.17-39.95-17.93C1160,874.68,1160.06,874.36,1160,870.75Z" transform="translate(-48 -65)"/><path class="cls-2" d="M1328.31,650.7c-4.8,3.68-8.86,4.68-12.17-2.06-5.58-11.34-16.14-14.65-27.61-16.06-2.81-.35-5.53-.18-7-3.44-1.71-3.83,1.55-5.39,3.11-7.76,15.61-2,28.23,3.37,38.29,15.39C1326.4,640.89,1328.91,645.14,1328.31,650.7Z" transform="translate(-48 -65)"/><path class="cls-5" d="M1024.2,1046.09c-10-.38-17.06-5.81-24.23-10.36a398.89,398.89,0,0,1-33.89-24.66c-3.32-2.64-3.7-4.63-2-8.18,5.22-10.66,16.33-16.75,26.86-14.11,1.62.41,3.21,2,4.28,3.45,11.28,15.37,23.79,29.9,32.09,47.31C1029.52,1044.09,1029.56,1046.8,1024.2,1046.09Z" transform="translate(-48 -65)"/><path class="cls-6" d="M840.51,871.34c10.55,4.09,15.38,13.61,21.84,21.26,2.63,3.11,7.85,6.89,6.44,10.07-1.52,3.4-7.36-.23-11.31.66-5.48,1.25-11.07,2.31-15.53,5.95-5.55,4.52-12.28,6.7-18.45,10-1.7.91-4,1.89-5.23.38-1.83-2.22.94-3.87,2.13-5.16,2.18-2.35,4.7-4.91,7.6-6,5.15-1.89,4.59-5.18,3.28-8.89-1.55-4.39-4.67-3.55-8-2.17a139.89,139.89,0,0,1-28.67,8.34c-3.31.6-6.89,1.25-10.5-1.09,4.12-4.5,8.57-7.54,14.36-8.36a10,10,0,0,0,2.07-.36c4.32-1.56,10.69-2.21,10.37-7.75s-6-7-11.2-7.49c-1.76-.17-4.32,0-4-2.6.25-1.89,2.59-1.51,4.2-1.61,10-.62,19.56.72,28.07,6.7a39.35,39.35,0,0,0,8.15,4.09c3,1.2,6,1,8.2-1.92,2.07-2.78,1.23-5.07-.71-7.6C842.3,876.09,840.41,874.45,840.51,871.34Z" transform="translate(-48 -65)"/><path class="cls-5" d="M890.41,954.8c-5.85-6.92-11.74-11-15.44-17.6-7.53-13.54.64-24.39,9.53-31.74,7-5.8,15.49-7.16,24.21-3,2,1,4.38,2,2.35,4.53C900.21,920.66,894.42,936.52,890.41,954.8Z" transform="translate(-48 -65)"/><path class="cls-2" d="M1229.33,758.29c-4.06-10.68-2.27-17.44,4.74-20.71,6.41-3,20.91,1.3,24.8,7.34,6.81,10.57,4.09,16.73-9.42,20.77,3.31,6.43,7.69,9.59,15.2,6.7,3.21-1.23,6.36-.87,7.79,3.44s-.41,6.75-3.86,8.58c-5.75,3.08-21.1.75-24.5-5.16-4.69-8.14-11.2-10.34-19.61-9.85-9.48.55-15.55-5.89-21.86-11.23-2.94-2.49-4.49-7-.46-10.44,3.34-2.89,5.76-1.54,8.79,1.55C1215.6,754.06,1221.26,757.87,1229.33,758.29Z" transform="translate(-48 -65)"/><path class="cls-2" d="M1218.13,698c-1.91,12.12-5.48,24.2-15.84,33.14-2.25,1.95-4.54,2.88-7.57,1.56a6.42,6.42,0,0,1-4.17-6.59c.23-13.11,3.14-25.26,12.65-35.05,2.67-2.75,4.93-7,9.44-5.17S1218,692.58,1218.13,698Z" transform="translate(-48 -65)"/><path class="cls-2" d="M1286.83,762.16c1-12.27,5.66-23.44,15.19-32.23,2.52-2.33,5.41-4.94,9.36-3s4.32,5.8,4,9.69c-1.13,12.17-5.1,23.14-14,31.87-2.77,2.7-5.22,6.37-10.12,4.38S1287.11,766.58,1286.83,762.16Z" transform="translate(-48 -65)"/><path class="cls-7" d="M1320.64,776.36c6.92-.08,12.86,5.88,13.07,13.1.17,5.68-6.15,10.87-13.26,10.88-6.43,0-12-5.88-12.11-12.93S1312.69,776.45,1320.64,776.36Z" transform="translate(-48 -65)"/><path class="cls-7" d="M1163.66,735.43c-6.31,0-12.1-6.36-11.94-13s5.09-11,12.77-11c6.91,0,12.63,6.11,12.6,13.34C1177.07,730.43,1170.68,735.48,1163.66,735.43Z" transform="translate(-48 -65)"/><rect class="cls-8" x="663.01" y="287.01" width="1080" height="1080" transform="translate(-294.86 932.42) rotate(-41.21)"/><path d="M704,578" transform="translate(-48 -65)"/><ellipse cx="649.5" cy="1147" rx="649.5" ry="634"/><path d="M695,1966s236-69,395-228c0,0,148.85-112.83,217.92-308.91" transform="translate(-48 -65)"/><path d="M697.92,1966s-236-69-395-228c0,0-148.84-112.83-217.92-308.91" transform="translate(-48 -65)"/><rect x="484" y="1750" width="334" height="61"/><rect x="531" y="1661" width="234" height="188"/><polyline points="587 1838 595 1871 627 1888 647 1901 699 1875 718 1833 641.33 1810.67"/><path d="M477.49,564.8c65.57-27.41,139.2-42.8,217-42.8s151.44,15.39,217,42.8a95,95,0,1,0-68.39-176.08,150.51,150.51,0,0,0-297.24,0A95,95,0,1,0,477.49,564.8Z" transform="translate(-48 -65)"/><text class="cls-9" transform="translate(1446.74 1422.4)">당근마켓</text></svg>