<svg xmlns="http://www.w3.org/2000/svg" viewBox="0 0 1322 438"><title>자산 1</title><g id="레이어_2" data-name="레이어 2"><g id="레이어_1-2" data-name="레이어 1"><g id="레이어_2-2" data-name="레이어 2"><g id="레이어_1-2-2" data-name="레이어 1-2"><path d="M662.5,63c0,79.3-47.2,131.5-133.9,153.4l-18.8-38.9c60.8-14.8,92.3-42.9,99.1-75.6H527.4V63ZM557.8,219.5H752V334.3H557.8Zm49.1,76.2h96V258h-96ZM752,47.6V208.1H702V47.6Z"/><path d="M1056.3,180.3v39.2H793.6V180.3H899.8V161.5H824.5V59.6h201.2V98.5H874.2v24.1H1027v38.9H949.8v18.8Zm-31.2,104c0,34.3-38.6,54-101.5,54-62.7,0-101.2-19.8-101.2-54,0-34.6,38.6-54.3,101.2-54.3,62.9,0,101.5,19.7,101.5,54.3Zm-50.6,0c0-12-15.7-16.7-50.9-16.7S873,272.2,873,284.3s15.4,16.4,50.6,16.4,50.9-4.4,50.9-16.4Z"/><path d="M1235.6,108.1H1078.5V69.5h56.2V45.4h50V69.5h50.9Zm-76.3,119.1c-38.9,0-69.1-24.1-69.1-56.2s30.3-56.2,69.1-56.2c39.2,0,69.4,24.1,69.4,56.2s-30.2,56.2-69.4,56.2Zm-37,16H1322v94.1h-50V282.1H1122.3Zm37-53.4c13.3,0,23.1-6.2,23.1-18.8s-9.9-18.8-23.1-18.8c-13,0-22.8,6.2-22.8,18.8s9.9,18.8,22.8,18.8ZM1322,47.9V232.5h-50V204.7h-31.8V165.5H1272V148.2h-30.9V109H1272V47.6Z"/><path d="M29.4,0,0,75.2V382.5H104.6V438h58.8L219,382.4h85L418.4,268V0ZM379.2,248.4l-65.4,65.4H209.2l-55.6,55.6V313.8H65.4V39.2H379.2V248.4Zm-65.4-134V228.7H274.6V114.4Zm-104.6,0V228.7H170V114.4Z"/><rect x="53.5" y="35.3" width="338" height="235"/><rect x="37.5" y="254.3" width="325" height="64"/><rect x="122.5" y="286.3" width="90" height="80"/><rect x="127.5" y="344.3" width="46" height="36"/></g></g></g></g></svg>